<svg width="130" height="120" viewBox="0 0 130 120" fill="none" xmlns="http://www.w3.org/2000/svg">
<path fill-rule="evenodd" clip-rule="evenodd" d="M68.169 115.735C38.528 117.457 12.8147 95.8275 9.00109 66.8412L11.6053 69.4454C11.9042 69.7443 12.2883 69.8864 12.6726 69.8864C13.057 69.8864 13.4552 69.744 13.74 69.4454C14.3377 68.8477 14.3377 67.8944 13.74 67.2968L8.16185 61.7186C8.17602 61.7328 8.14767 61.7044 8.16185 61.7186C8.11899 61.6757 8.03395 61.6049 7.9911 61.5765C7.96275 61.5482 7.93407 61.5337 7.90572 61.5053C7.84869 61.477 7.80617 61.4483 7.74914 61.4199C7.72079 61.4058 7.67793 61.3916 7.64959 61.3771C7.59256 61.3629 7.53586 61.3487 7.49301 61.3342C7.45015 61.32 7.40763 61.3059 7.36477 61.3059C7.32191 61.2917 7.26522 61.2917 7.20819 61.2917C7.16533 61.2917 7.13699 61.2775 7.09447 61.2775C7.06612 61.2775 6.93755 61.2917 6.9092 61.2917C6.85217 61.2917 6.80965 61.3059 6.75262 61.32C6.70977 61.3342 6.65307 61.3484 6.61022 61.3629C6.56736 61.3771 6.52484 61.3913 6.48198 61.4199C6.43912 61.4483 6.38243 61.4628 6.33957 61.4911C6.29672 61.5195 6.2542 61.534 6.22585 61.5623C6.18299 61.5907 6.14047 61.6335 6.09762 61.6619C6.06927 61.6761 6.04059 61.7047 6.02641 61.7189L0.448229 67.2971C-0.14941 67.8947 -0.14941 68.8481 0.448229 69.4457C1.04587 70.0433 1.99919 70.0433 2.59682 69.4457L5.86983 66.1727C9.27074 96.1123 34.7566 118.88 64.8815 118.88C66.0343 118.88 67.2009 118.852 68.3537 118.781C69.1933 118.738 69.8334 118.012 69.7767 117.173C69.72 116.333 69.0082 115.693 68.169 115.735Z" fill="#1E6F9F"/>
<path fill-rule="evenodd" clip-rule="evenodd" d="M129.372 49.4239C128.774 48.8263 127.821 48.8263 127.223 49.4239L123.95 52.697C122.314 38.1396 115.455 24.8631 104.427 15.0447C92.5732 4.48593 77.3186 -0.821588 61.4665 0.103356C60.6269 0.146213 59.9868 0.87175 60.0435 1.71134C60.0863 2.55094 60.8119 3.1911 61.6515 3.13441C76.6926 2.26646 91.1642 7.3037 102.42 17.3215C112.623 26.4144 119.069 38.6094 120.834 52.0284L118.229 49.4242C117.632 48.8266 116.678 48.8266 116.081 49.4242C115.483 50.0219 115.483 50.9752 116.081 51.5728L121.659 57.151C121.702 57.1939 121.773 57.2505 121.83 57.2934C121.858 57.3076 121.873 57.3363 121.901 57.3504C121.972 57.3933 122.043 57.4358 122.115 57.4642C122.1 57.45 122.129 57.4642 122.115 57.4642C122.2 57.507 122.342 57.5495 122.442 57.5779C122.499 57.5921 122.556 57.5921 122.598 57.5921C122.641 57.5921 122.684 57.6062 122.727 57.6062C122.698 57.6062 122.755 57.6062 122.727 57.6062C122.755 57.6062 122.869 57.5921 122.897 57.5921C122.954 57.5921 123.011 57.5779 123.054 57.5637C123.097 57.5495 123.139 57.5354 123.196 57.5209C123.239 57.5067 123.296 57.4925 123.339 57.4638C123.382 57.4497 123.424 57.421 123.467 57.3926C123.51 57.3643 123.552 57.3498 123.595 57.3214C123.638 57.2931 123.681 57.2502 123.724 57.2219C123.752 57.2077 123.781 57.179 123.795 57.1648L129.373 51.5867C129.969 50.9752 129.969 50.0219 129.372 49.4239Z" fill="#1E6F9F"/>
<path fill-rule="evenodd" clip-rule="evenodd" d="M90.3527 57.9191H94.6644C94.5078 54.9451 93.9244 52.0848 92.9569 49.3952L90.7796 50.306C90.5947 50.3914 90.3952 50.4198 90.1961 50.4198C89.5985 50.4198 89.0292 50.0641 88.7872 49.4806C88.4599 48.7122 88.8301 47.8156 89.6127 47.4883L91.7899 46.5775C90.5376 43.9733 88.9155 41.5686 87.0088 39.4483L83.9636 42.4936C83.6646 42.7925 83.2806 42.9346 82.8962 42.9346C82.5119 42.9346 82.1137 42.7922 81.8288 42.4936C81.2312 41.8959 81.2312 40.9426 81.8288 40.345L84.8741 37.2997C82.7255 35.3644 80.2921 33.7281 77.6595 32.4758L76.7629 34.653C76.521 35.2365 75.9517 35.5922 75.354 35.5922C75.1549 35.5922 74.9697 35.5493 74.7706 35.4785C74.0022 35.1653 73.6323 34.269 73.9451 33.5006L74.8418 31.3233C72.1809 30.3842 69.349 29.8007 66.4178 29.6583V33.97C66.4178 34.8096 65.7348 35.4926 64.8952 35.4926C64.0556 35.4926 63.3726 34.8096 63.3726 33.97V29.6583C60.3985 29.8149 57.5383 30.3984 54.8487 31.3659L55.7595 33.5432C56.0869 34.3115 55.7167 35.2082 54.9341 35.5355C54.7492 35.6209 54.5497 35.6492 54.3506 35.6492C53.753 35.6492 53.1837 35.2935 52.9417 34.7101L52.0309 32.5328C49.4268 33.7851 47.022 35.4073 44.9018 37.3139L47.947 40.3591C48.5447 40.9568 48.5447 41.9101 47.947 42.5077C47.648 42.8067 47.264 42.9488 46.8796 42.9488C46.4953 42.9488 46.0971 42.8064 45.8123 42.5077L42.767 39.4625C40.8317 41.6111 39.1954 44.0445 37.9431 46.677L40.1203 47.5736C40.8887 47.8868 41.2586 48.7831 40.9458 49.5515C40.7038 50.135 40.1345 50.4906 39.5369 50.4906C39.3378 50.4906 39.1525 50.4478 38.9534 50.3769L36.7761 49.4803C35.837 52.1412 35.2535 54.9731 35.1111 57.9043L39.4238 57.9049C40.2634 57.9049 40.9464 58.5879 40.9464 59.4275C40.9464 60.2671 40.2634 60.9502 39.4238 60.9502H35.1121C35.2687 63.9242 35.8522 66.7845 36.8197 69.474L38.997 68.5632C39.7653 68.2359 40.662 68.6061 40.9893 69.3886C41.3166 70.1712 40.9465 71.0537 40.1639 71.381L37.9866 72.2918C39.2389 74.896 40.8611 77.3007 42.7677 79.4209L45.8129 76.3757C46.4106 75.7781 47.3639 75.7781 47.9615 76.3757C48.5592 76.9734 48.5592 77.9267 47.9615 78.5243L44.9163 81.5695C47.0649 83.5049 49.4983 85.1412 52.1308 86.3935L53.0275 84.2162C53.3406 83.4478 54.2369 83.078 55.0053 83.3908C55.7737 83.704 56.1435 84.6002 55.8307 85.3686L54.9341 87.5459C57.595 88.4851 60.4269 89.0685 63.3581 89.2109V84.8992C63.3581 84.0596 64.0411 83.3766 64.8807 83.3766C65.7203 83.3766 66.4033 84.0596 66.4033 84.8992V89.2109C69.3773 89.0544 72.2376 88.4709 74.9272 87.5034L74.0163 85.3261C73.689 84.5577 74.0592 83.6611 74.8418 83.3338C75.6102 83.0064 76.5068 83.3766 76.8341 84.1592L77.7449 86.3365C80.3491 85.0842 82.7538 83.462 84.8741 81.5554L81.8288 78.5101C81.2312 77.9125 81.2312 76.9592 81.8288 76.3615C82.4265 75.7639 83.3798 75.7639 83.9774 76.3615L87.0227 79.4068C88.958 77.2582 90.5943 74.8248 91.8466 72.1922L89.6693 71.2956C88.9009 70.9825 88.5311 70.0862 88.8439 69.3178C89.1571 68.5494 90.0534 68.1795 90.8218 68.4923L92.999 69.389C93.9382 66.7281 94.5217 63.8962 94.6641 60.965L90.3527 60.9643C89.5131 60.9643 88.8301 60.2813 88.8301 59.4417C88.8301 58.6021 89.5131 57.9191 90.3527 57.9191ZM79.0259 56.98L65.3224 60.8931C65.18 60.936 65.0379 60.9501 64.9097 60.9501C64.4686 60.9501 64.0417 60.751 63.7428 60.4095L53.9525 48.6555C53.4118 48.015 53.4972 47.0475 54.1516 46.5211C54.792 45.9805 55.7595 46.0659 56.286 46.7202L65.45 57.7058L78.2143 54.0629C79.0255 53.8351 79.8648 54.3049 80.0926 55.1016C80.2924 55.9125 79.8368 56.7522 79.0259 56.98Z" fill="#1E6F9F"/>
<path fill-rule="evenodd" clip-rule="evenodd" d="M94.0813 30.2563C86.2833 22.4583 75.924 18.1749 64.8955 18.1749C53.8674 18.1749 43.5081 22.4725 35.7098 30.2563C27.9118 38.0543 23.6284 48.4136 23.6284 59.442C23.6284 70.4701 27.9259 80.8295 35.7098 88.6278C43.5078 96.4258 53.8671 100.709 64.8955 100.709C75.9236 100.709 86.283 96.4116 94.0813 88.6278C110.175 72.5192 110.175 46.3504 94.0813 30.2563ZM95.2769 71.9644C93.6264 75.9346 91.2213 79.5346 88.2473 82.537C88.2044 82.5799 88.1761 82.6366 88.1336 82.6652C88.0907 82.7081 88.0482 82.7364 88.0053 82.779C85.0172 85.7388 81.4738 88.1152 77.5465 89.7657C73.6617 91.3879 69.3786 92.2845 64.9103 92.2845C60.4849 92.2845 56.2586 91.4024 52.4021 89.8085C48.4319 88.158 44.8319 85.753 41.815 82.7648C41.7722 82.7219 41.7155 82.6936 41.6868 82.6511C41.6439 82.6082 41.6156 82.5657 41.5731 82.5228C38.6132 79.5346 36.2368 75.9913 34.5863 72.064C32.9642 68.1791 32.0534 63.8961 32.0534 59.4278C32.0534 55.0024 32.9355 50.776 34.5293 46.9196C36.1798 42.9494 38.5849 39.3494 41.5589 36.3325C41.6017 36.2896 41.6301 36.2329 41.6726 36.1901C41.7155 36.1472 41.758 36.1189 41.815 36.0764C44.8032 33.1165 48.3465 30.7401 52.2739 29.0896C56.1587 27.4675 60.4417 26.5708 64.9101 26.5708C69.3355 26.5708 73.5618 27.453 77.4183 29.0468C81.3885 30.6973 84.9885 33.1023 88.0054 36.0764C88.0482 36.1192 88.1049 36.1476 88.1478 36.1901C88.1906 36.2329 88.219 36.2755 88.2615 36.3325C91.2213 39.3207 93.5977 42.864 95.2482 46.7914C96.8704 50.6762 97.767 54.9592 97.767 59.4275C97.767 63.853 96.8707 68.1079 95.2769 71.9644Z" fill="#1E6F9F"/>
<path d="M107.429 119.108C110.187 119.108 112.423 116.872 112.423 114.113C112.423 111.355 110.187 109.119 107.429 109.119C104.67 109.119 102.434 111.355 102.434 114.113C102.434 116.872 104.67 119.108 107.429 119.108Z" fill="#1E6F9F"/>
<path d="M22.3765 18.4311C26.573 18.4311 29.975 15.0291 29.975 10.8326C29.975 6.636 26.573 3.23401 22.3765 3.23401C18.1799 3.23401 14.7779 6.636 14.7779 10.8326C14.7779 15.0291 18.1799 18.4311 22.3765 18.4311Z" fill="#1E6F9F"/>
</svg>
